<svg width="128" height="50" viewBox="0 0 128 50" fill="#fff" xmlns="http://www.w3.org/2000/svg">
<path d="M25 3.125C25.8288 3.125 26.6237 3.45424 27.2097 4.04029C27.7958 4.62634 28.125 5.4212 28.125 6.25V43.75C28.125 44.5788 27.7958 45.3737 27.2097 45.9597C26.6237 46.5458 25.8288 46.875 25 46.875H6.25C5.4212 46.875 4.62634 46.5458 4.04029 45.9597C3.45424 45.3737 3.125 44.5788 3.125 43.75V6.25C3.125 5.4212 3.45424 4.62634 4.04029 4.04029C4.62634 3.45424 5.4212 3.125 6.25 3.125H25ZM6.25 0C4.5924 0 3.00268 0.65848 1.83058 1.83058C0.65848 3.00269 0 4.5924 0 6.25V43.75C0 45.4076 0.65848 46.9973 1.83058 48.1694C3.00268 49.3415 4.5924 50 6.25 50H25C26.6576 50 28.2473 49.3415 29.4194 48.1694C30.5915 46.9973 31.25 45.4076 31.25 43.75V6.25C31.25 4.5924 30.5915 3.00269 29.4194 1.83058C28.2473 0.65848 26.6576 0 25 0L6.25 0Z" fill="white"/>
<path d="M15.625 43.75C16.4538 43.75 17.2487 43.4208 17.8347 42.8347C18.4208 42.2487 18.75 41.4538 18.75 40.625C18.75 39.7962 18.4208 39.0013 17.8347 38.4153C17.2487 37.8292 16.4538 37.5 15.625 37.5C14.7962 37.5 14.0013 37.8292 13.4153 38.4153C12.8292 39.0013 12.5 39.7962 12.5 40.625C12.5 41.4538 12.8292 42.2487 13.4153 42.8347C14.0013 43.4208 14.7962 43.75 15.625 43.75Z" fill="white"/>
<path d="M41.825 34V17.8H47.265C48.2383 17.8 49.0383 17.9867 49.665 18.36C50.2917 18.72 50.7583 19.2533 51.065 19.96C51.3717 20.6533 51.525 21.5 51.525 22.5C51.525 23.7533 51.3183 24.7133 50.905 25.38C50.4917 26.0333 49.9317 26.4867 49.225 26.74C48.5183 26.9933 47.725 27.12 46.845 27.12H45.405V34H41.825ZM45.405 24.62H46.605C47.045 24.62 47.3783 24.54 47.605 24.38C47.8317 24.22 47.9783 23.98 48.045 23.66C48.125 23.34 48.165 22.9333 48.165 22.44C48.165 22.0267 48.1317 21.6667 48.065 21.36C48.0117 21.04 47.8717 20.7867 47.645 20.6C47.4183 20.4133 47.065 20.32 46.585 20.32H45.405V24.62ZM53.3908 34V17.8H56.6308V23.46C57.0574 23.0333 57.5041 22.7267 57.9708 22.54C58.4374 22.34 58.9374 22.24 59.4708 22.24C59.9374 22.24 60.3241 22.36 60.6308 22.6C60.9508 22.8267 61.1908 23.1467 61.3508 23.56C61.5108 23.96 61.5908 24.42 61.5908 24.94V34H58.3508V25.4C58.3508 25.12 58.3041 24.9067 58.2108 24.76C58.1174 24.6133 57.9441 24.54 57.6908 24.54C57.5574 24.54 57.3974 24.58 57.2108 24.66C57.0241 24.7267 56.8308 24.8267 56.6308 24.96V34H53.3908ZM67.6466 34.2C66.8199 34.2 66.0999 34.06 65.4866 33.78C64.8866 33.5 64.4199 33.08 64.0866 32.52C63.7666 31.96 63.6066 31.26 63.6066 30.42V26.02C63.6066 25.18 63.7666 24.48 64.0866 23.92C64.4199 23.36 64.8866 22.94 65.4866 22.66C66.0999 22.38 66.8199 22.24 67.6466 22.24C68.4732 22.24 69.1866 22.38 69.7866 22.66C70.3999 22.94 70.8732 23.36 71.2066 23.92C71.5399 24.48 71.7066 25.18 71.7066 26.02V30.42C71.7066 31.26 71.5399 31.96 71.2066 32.52C70.8732 33.08 70.3999 33.5 69.7866 33.78C69.1866 34.06 68.4732 34.2 67.6466 34.2ZM67.6666 32.04C67.8799 32.04 68.0466 31.9867 68.1666 31.88C68.2866 31.76 68.3666 31.6 68.4066 31.4C68.4599 31.1867 68.4866 30.9333 68.4866 30.64V25.8C68.4866 25.5067 68.4599 25.26 68.4066 25.06C68.3666 24.8467 68.2866 24.6867 68.1666 24.58C68.0466 24.46 67.8799 24.4 67.6666 24.4C67.4532 24.4 67.2866 24.46 67.1666 24.58C67.0466 24.6867 66.9599 24.8467 66.9066 25.06C66.8532 25.26 66.8266 25.5067 66.8266 25.8V30.64C66.8266 30.9333 66.8532 31.1867 66.9066 31.4C66.9599 31.6 67.0466 31.76 67.1666 31.88C67.2866 31.9867 67.4532 32.04 67.6666 32.04ZM73.8145 34V22.44H77.0745V23.6C77.5012 23.1733 77.9412 22.84 78.3945 22.6C78.8612 22.36 79.3479 22.24 79.8545 22.24C80.3345 22.24 80.7279 22.36 81.0345 22.6C81.3545 22.8267 81.5945 23.1467 81.7545 23.56C81.9145 23.96 81.9945 24.42 81.9945 24.94V34H78.7545V25.4C78.7545 25.12 78.7079 24.9067 78.6145 24.76C78.5212 24.6133 78.3479 24.54 78.0945 24.54C77.9612 24.54 77.8012 24.58 77.6145 24.66C77.4412 24.7267 77.2612 24.8267 77.0745 24.96V34H73.8145ZM88.0313 34.2C87.1913 34.2 86.4713 34.0533 85.8713 33.76C85.2713 33.4533 84.8113 33.0133 84.4913 32.44C84.1713 31.8533 84.0113 31.1533 84.0113 30.34V26.1C84.0113 25.2733 84.1713 24.5733 84.4913 24C84.8113 23.4267 85.2713 22.9933 85.8713 22.7C86.4846 22.3933 87.2046 22.24 88.0313 22.24C88.8846 22.24 89.5913 22.3867 90.1513 22.68C90.7246 22.9733 91.1513 23.4067 91.4313 23.98C91.7246 24.5533 91.8713 25.26 91.8713 26.1V28.42H87.2313V30.64C87.2313 30.9333 87.2646 31.1733 87.3313 31.36C87.3979 31.5467 87.4913 31.68 87.6113 31.76C87.7313 31.84 87.8713 31.88 88.0313 31.88C88.1913 31.88 88.3313 31.8467 88.4513 31.78C88.5846 31.7 88.6846 31.58 88.7513 31.42C88.8313 31.26 88.8713 31.04 88.8713 30.76V29.54H91.8713V30.66C91.8713 31.8333 91.5313 32.72 90.8513 33.32C90.1713 33.9067 89.2313 34.2 88.0313 34.2ZM87.2313 26.9H88.8713V25.74C88.8713 25.4333 88.8313 25.1933 88.7513 25.02C88.6846 24.8467 88.5846 24.7267 88.4513 24.66C88.3313 24.5933 88.1846 24.56 88.0113 24.56C87.8513 24.56 87.7113 24.6 87.5913 24.68C87.4846 24.76 87.3979 24.9 87.3313 25.1C87.2646 25.2867 87.2313 25.56 87.2313 25.92V26.9ZM97.5258 34.12C96.6591 34.12 95.9858 33.9933 95.5058 33.74C95.0391 33.4867 94.7191 33.12 94.5458 32.64C94.3724 32.1467 94.2858 31.5533 94.2858 30.86V24.58H93.1658V22.44H94.2858V18.92H97.5858V22.44H99.2258V24.58H97.5858V30.54C97.5858 30.8733 97.6791 31.1133 97.8658 31.26C98.0658 31.4067 98.3124 31.48 98.6058 31.48C98.7791 31.48 98.9391 31.4733 99.0858 31.46C99.2324 31.4333 99.3658 31.4133 99.4858 31.4V33.96C99.3124 33.9867 99.0391 34.02 98.6658 34.06C98.2924 34.1 97.9124 34.12 97.5258 34.12ZM101.336 34V22.44H104.596V34H101.336ZM101.316 20.48V18.22H104.596V20.48H101.316ZM107.329 34V24.64H106.229V22.44H107.329V21.58C107.329 20.9 107.396 20.3067 107.529 19.8C107.676 19.2933 107.969 18.9 108.409 18.62C108.862 18.34 109.556 18.2 110.489 18.2C110.742 18.2 110.989 18.2067 111.229 18.22C111.482 18.2333 111.756 18.26 112.049 18.3V20.72C111.956 20.6933 111.842 20.6733 111.709 20.66C111.589 20.6333 111.469 20.62 111.349 20.62C111.109 20.62 110.922 20.6933 110.789 20.84C110.656 20.9733 110.589 21.2 110.589 21.52V22.44H112.049V24.64H110.589V34H107.329ZM113.935 37.36V35.1C114.349 35.1 114.689 35.0733 114.955 35.02C115.235 34.9667 115.442 34.8667 115.575 34.72C115.722 34.5733 115.795 34.3733 115.795 34.12C115.795 33.8933 115.755 33.62 115.675 33.3C115.595 32.9667 115.495 32.5933 115.375 32.18L112.655 22.44H115.715L117.175 29.12L118.275 22.44H121.355L118.695 34.28C118.522 35.08 118.249 35.7 117.875 36.14C117.502 36.5933 117.042 36.9067 116.495 37.08C115.962 37.2667 115.355 37.36 114.675 37.36H113.935Z" fill="white"/>
<line x1="35.6274" y1="41.5" x2="127.649" y2="41.6455" stroke="white" stroke-width="3"/>
</svg>
